<svg xmlns="http://www.w3.org/2000/svg" width="159.873" height="80.196" viewBox="0 0 159.873 80.196"><defs><style>.a{fill:#e20613;}</style></defs><g transform="translate(0 0)"><g transform="translate(55.942 0.959)"><path class="a" d="M140.04,2.4h15.744V20.221h17.182V2.4h15.784V53.347H172.926V32.728H155.744V53.347H140V2.4Z" transform="translate(-140 -2.4)"/><path class="a" d="M277.44,2.4h47.83V14.987H309.207v38.36H293.463V14.987H277.4V2.4Z" transform="translate(-222.497 -2.4)"/></g><g transform="translate(55.422 60.057)"><path class="a" d="M142.037,158.831A4.068,4.068,0,0,1,139,157.752l1.039-1.039a2.714,2.714,0,0,0,2,.679c.959,0,1.478-.36,1.478-1.039a.94.94,0,0,0-.24-.679,1.093,1.093,0,0,0-.719-.28l-1-.16a2.823,2.823,0,0,1-1.6-.679,2.173,2.173,0,0,1-.6-1.638c0-1.478,1.079-2.517,2.877-2.517a3.562,3.562,0,0,1,2.677.959l-1.039,1a2.24,2.24,0,0,0-1.718-.559c-.879,0-1.279.48-1.279,1.039a.881.881,0,0,0,.24.6,1.333,1.333,0,0,0,.759.32l.959.16a2.974,2.974,0,0,1,1.6.639,2.324,2.324,0,0,1,.639,1.758C145.114,157.952,143.755,158.831,142.037,158.831Z" transform="translate(-138.88 -150.36)"/><path class="a" d="M163.814,158.911v-4.835l-1.6,3.157h-1.079l-1.6-3.157v4.835H157.9V150.6h1.6l2.158,4.475,2.158-4.475h1.6v8.311Z" transform="translate(-150.228 -150.48)"/><path class="a" d="M184.734,158.911l-.479-1.478H181.3l-.519,1.478H179.1l3.037-8.311h1.279l3.037,8.311Zm-1.958-5.874-1.039,3.037h2.078Z" transform="translate(-162.957 -150.48)"/><path class="a" d="M204.635,158.911,203,155.595h-1.159v3.317H200.2V150.6h3.237a2.508,2.508,0,0,1,2.677,2.557,2.3,2.3,0,0,1-1.518,2.2l1.838,3.6h-1.8Zm-1.239-6.873h-1.518v2.2H203.4a1.051,1.051,0,0,0,1.159-1.079A1.081,1.081,0,0,0,203.4,152.038Z" transform="translate(-175.626 -150.48)"/><path class="a" d="M220.8,152.038v6.833h-1.638v-6.833H217V150.6h5.994v1.439Z" transform="translate(-185.713 -150.48)"/><path class="a" d="M245.077,158.771a3.076,3.076,0,0,1-2.238-.919,2.4,2.4,0,0,1-.679-1.239,12.483,12.483,0,0,1-.16-2.078,9.254,9.254,0,0,1,.16-2.078,2.253,2.253,0,0,1,.679-1.239,3.076,3.076,0,0,1,2.238-.919,2.9,2.9,0,0,1,3.037,2.637h-1.638a1.324,1.324,0,0,0-1.4-1.159,1.208,1.208,0,0,0-1.039.44c-.32.36-.4.719-.4,2.358,0,1.6.08,2,.4,2.358a1.325,1.325,0,0,0,1.039.44,1.355,1.355,0,0,0,1.4-1.159h1.638A2.868,2.868,0,0,1,245.077,158.771Z" transform="translate(-200.723 -150.3)"/><path class="a" d="M265.635,158.911v-3.476h-2.8v3.476H261.2V150.6h1.638V154h2.8v-3.4h1.638v8.311Z" transform="translate(-212.251 -150.48)"/><path class="a" d="M282.2,158.911V150.6h5.474v1.439h-3.836V154h3.277v1.438h-3.277v2h3.836v1.439H282.2Z" transform="translate(-224.86 -150.48)"/><path class="a" d="M306.014,158.911v-4.835l-1.6,3.157h-1.079l-1.6-3.157v4.835H300.1V150.6h1.6l2.158,4.475,2.158-4.475h1.6v8.311Z" transform="translate(-235.607 -150.48)"/><path class="a" d="M324.8,158.911V150.6h1.638v8.311Z" transform="translate(-250.438 -150.48)"/><path class="a" d="M335.237,158.831a4.068,4.068,0,0,1-3.037-1.079l1.039-1.039a2.714,2.714,0,0,0,2,.679c.959,0,1.478-.36,1.478-1.039a.94.94,0,0,0-.24-.679,1.093,1.093,0,0,0-.719-.28l-1-.16a2.823,2.823,0,0,1-1.6-.679,2.173,2.173,0,0,1-.6-1.638c0-1.478,1.079-2.517,2.877-2.517a3.562,3.562,0,0,1,2.677.959l-1.039,1a2.239,2.239,0,0,0-1.718-.559c-.879,0-1.279.48-1.279,1.039a.881.881,0,0,0,.24.6,1.333,1.333,0,0,0,.759.32l.959.16a2.974,2.974,0,0,1,1.6.639,2.324,2.324,0,0,1,.639,1.758C338.314,157.952,336.955,158.831,335.237,158.831Z" transform="translate(-254.881 -150.36)"/><path class="a" d="M352.756,152.038v6.833h-1.638v-6.833H349V150.6h5.954v1.439Z" transform="translate(-264.968 -150.48)"/><path class="a" d="M371.4,158.911l-1.638-3.317H368.6v3.317H367V150.6h3.237a2.508,2.508,0,0,1,2.677,2.557,2.3,2.3,0,0,1-1.518,2.2l1.838,3.6H371.4Zm-1.279-6.873H368.6v2.2h1.518a1.1,1.1,0,1,0,0-2.2Z" transform="translate(-275.775 -150.48)"/><path class="a" d="M387.676,155.575v3.4h-1.6v-3.4L383.6,150.7h1.758l1.558,3.356,1.518-3.356h1.758Z" transform="translate(-285.742 -150.54)"/><path class="a" d="M146.652,188.011h-1.359l-1.518-5.035-1.518,5.035H140.9l-2.2-8.311h1.678l1.279,5.235,1.518-5.235h1.2l1.518,5.235,1.279-5.235h1.678Z" transform="translate(-138.7 -167.952)"/><path class="a" d="M167.7,188.011V179.7h1.638v8.311Z" transform="translate(-156.112 -167.952)"/><path class="a" d="M179.2,181.238v6.833h-1.638v-6.833H175.4V179.8h5.954v1.438Z" transform="translate(-160.735 -168.012)"/><path class="a" d="M197.835,188.011v-3.476h-2.8v3.476H193.4V179.7h1.638v3.4h2.8v-3.4h1.638v8.311Z" transform="translate(-171.543 -167.952)"/><path class="a" d="M226.177,187.971a3.076,3.076,0,0,1-2.238-.919,2.4,2.4,0,0,1-.679-1.239,12.481,12.481,0,0,1-.16-2.078,9.252,9.252,0,0,1,.16-2.078,2.253,2.253,0,0,1,.679-1.239,3.076,3.076,0,0,1,2.238-.919,2.9,2.9,0,0,1,3.037,2.637h-1.638a1.323,1.323,0,0,0-1.4-1.159,1.208,1.208,0,0,0-1.039.44c-.32.36-.4.719-.4,2.358,0,1.6.08,2,.4,2.358a1.325,1.325,0,0,0,1.039.44,1.355,1.355,0,0,0,1.4-1.159h1.638A2.919,2.919,0,0,1,226.177,187.971Z" transform="translate(-189.375 -167.832)"/><path class="a" d="M246.735,188.011v-3.476h-2.8v3.476H242.3V179.7h1.638v3.4h2.8v-3.4h1.638v8.311Z" transform="translate(-200.903 -167.952)"/><path class="a" d="M266.734,188.011l-.48-1.478H263.3l-.519,1.478H261.1l3.037-8.311h1.279l3.037,8.311Zm-1.958-5.834-1.039,3.037h2.078Z" transform="translate(-212.191 -167.952)"/><path class="a" d="M287.235,188.011l-1.638-3.317h-1.159v3.317H282.8V179.7h3.237a2.508,2.508,0,0,1,2.677,2.557,2.3,2.3,0,0,1-1.518,2.2l1.838,3.6h-1.8Zm-1.279-6.833h-1.518v2.2h1.518a1.051,1.051,0,0,0,1.159-1.079A1.081,1.081,0,0,0,285.957,181.178Z" transform="translate(-225.22 -167.952)"/><path class="a" d="M306.234,188.011l-.479-1.478H302.8l-.519,1.478H300.6l3.037-8.311h1.279l3.037,8.311Zm-1.958-5.834-1.039,3.037h2.078Z" transform="translate(-235.908 -167.952)"/><path class="a" d="M323.877,187.971a3.076,3.076,0,0,1-2.238-.919,2.4,2.4,0,0,1-.679-1.239,12.48,12.48,0,0,1-.16-2.078,9.254,9.254,0,0,1,.16-2.078,2.253,2.253,0,0,1,.679-1.239,3.076,3.076,0,0,1,2.238-.919,2.9,2.9,0,0,1,3.037,2.637h-1.638a1.324,1.324,0,0,0-1.4-1.159,1.208,1.208,0,0,0-1.039.44c-.32.36-.4.719-.4,2.358,0,1.6.08,2,.4,2.358a1.325,1.325,0,0,0,1.039.44,1.355,1.355,0,0,0,1.4-1.159h1.638A2.893,2.893,0,0,1,323.877,187.971Z" transform="translate(-248.036 -167.832)"/><path class="a" d="M341.1,181.238v6.833h-1.638v-6.833H337.3V179.8h5.954v1.438Z" transform="translate(-257.943 -168.012)"/><path class="a" d="M355.8,188.011V179.7h5.474v1.439h-3.836V183.1h3.277v1.438h-3.277v2h3.836v1.439H355.8Z" transform="translate(-269.051 -167.952)"/><path class="a" d="M378.735,188.011l-1.638-3.317h-1.159v3.317H374.3V179.7h3.237a2.508,2.508,0,0,1,2.677,2.557,2.3,2.3,0,0,1-1.518,2.2l1.838,3.6h-1.8Zm-1.279-6.833h-1.518v2.2h1.518a1.051,1.051,0,0,0,1.159-1.079A1.081,1.081,0,0,0,377.457,181.178Z" transform="translate(-280.158 -167.952)"/><path class="a" d="M393.4,197.918V196.2h1.718v1.718Z" transform="translate(-291.626 -177.859)"/></g><path class="a" d="M25.573,40.837a8.758,8.758,0,0,1-7.232-3.157c-1.718-2.078-2.557-5.954-2.557-11.588,0-4.555.719-7.912,2.158-10.03a9.255,9.255,0,0,1,8.191-4.315,8.027,8.027,0,0,1,7.512,4.515H48.789A21.666,21.666,0,0,0,40.877,3.876C37.2,1.279,32.126,0,25.733,0Q13.446,0,6.713,6.793a21.9,21.9,0,0,0-5.434,9.43H8.431V19.38H.559A34.136,34.136,0,0,0,.04,24.055H8.431v3.157H0a34.529,34.529,0,0,0,.4,4.675H8.431v3.157H1a23.283,23.283,0,0,0,2.8,6.673,21.7,21.7,0,0,0,9.071,8.471c3.516,1.6,8.032,2.4,13.586,2.4,10.469,0,15.464-4.755,17.462-7.352a28.709,28.709,0,0,0,4.875-10.309H34.244C33.565,38.24,30.448,40.837,25.573,40.837Z" transform="translate(0 0)"/></g></svg>